<?xml version="1.0" standalone="no"?>
<!DOCTYPE svg PUBLIC "-//W3C//DTD SVG 20010904//EN"
 "http://www.w3.org/TR/2001/REC-SVG-20010904/DTD/svg10.dtd">
<svg version="1.0" xmlns="http://www.w3.org/2000/svg"
 width="512.000000pt" height="512.000000pt" viewBox="0 0 512.000000 512.000000"
 preserveAspectRatio="xMidYMid meet">
<metadata>
Created by potrace 1.11, written by Peter Selinger 2001-2013
</metadata>
<g transform="translate(0.000000,512.000000) scale(0.100000,-0.100000)"
fill="#000000" stroke="none">
<path d="M0 2560 l0 -2560 2560 0 2560 0 0 2560 0 2560 -2560 0 -2560 0 0
-2560z m2557 1994 c191 -121 444 -374 561 -559 51 -82 109 -214 134 -305 20
-74 23 -106 22 -255 -1 -151 -4 -180 -26 -257 l-26 -86 107 53 c265 133 502
183 809 172 166 -6 269 -20 377 -52 112 -32 198 -159 181 -267 -14 -84 -144
-361 -238 -506 -131 -200 -292 -352 -470 -443 -99 -51 -279 -99 -367 -99 -27
0 -63 -3 -80 -6 l-31 -6 61 -66 c264 -282 430 -683 433 -1043 1 -123 0 -126
-29 -174 -40 -65 -107 -107 -180 -113 -123 -10 -419 39 -596 98 -247 82 -421
197 -555 364 -69 86 -131 198 -159 286 -10 30 -21 58 -24 63 -4 4 -20 -16 -36
-45 -107 -200 -299 -414 -495 -553 -135 -95 -363 -208 -454 -224 -92 -16 -197
29 -246 105 -66 104 -120 501 -100 736 26 297 118 508 303 691 43 43 77 80 75
81 -1 1 -34 8 -73 15 -147 26 -357 108 -510 199 -149 89 -363 274 -446 385
-60 82 -59 203 2 287 82 113 494 318 759 377 118 26 350 24 463 -5 97 -24 203
-68 277 -113 26 -16 49 -29 52 -29 3 0 -2 33 -10 73 -11 51 -16 134 -16 287 0
187 3 228 22 319 64 292 194 565 295 617 66 35 177 33 234 -2z"/>
<path d="M2369 4423 c-21 -18 -50 -65 -80 -128 -219 -465 -210 -932 26 -1410
30 -60 64 -121 75 -135 l20 -25 -10 35 c-27 95 10 201 88 255 40 27 51 30 126
30 73 0 87 -3 124 -27 52 -35 92 -103 101 -170 l6 -52 78 69 c67 60 84 82 121
160 160 330 136 634 -76 951 -85 127 -343 376 -469 453 -47 29 -90 27 -130 -6z"/>
<path d="M1390 3294 c-94 -11 -172 -28 -259 -55 -193 -61 -529 -247 -551 -304
-22 -57 -13 -91 41 -152 218 -251 522 -426 869 -499 109 -23 448 -26 588 -5
97 15 131 31 65 31 -120 1 -227 131 -209 252 19 124 143 215 263 192 l34 -7
-39 79 c-21 44 -50 105 -63 138 -49 120 -264 264 -465 311 -66 15 -217 26
-274 19z"/>
<path d="M3925 3184 c-136 -19 -193 -30 -277 -55 -246 -73 -469 -205 -664
-393 l-99 -96 59 26 c48 22 68 26 113 21 69 -7 135 -46 171 -99 24 -37 27 -51
27 -124 0 -75 -3 -86 -30 -126 -17 -24 -51 -54 -78 -69 l-47 -25 109 -71 c96
-62 119 -73 180 -82 188 -29 378 -2 536 77 242 121 461 396 605 757 40 100 39
138 -2 179 -29 29 -46 35 -148 55 -110 21 -377 36 -455 25z"/>
<path d="M2573 2910 c-30 -12 -55 -63 -47 -97 6 -26 58 -199 70 -233 3 -9 29
40 60 113 50 117 54 131 44 162 -18 55 -71 78 -127 55z"/>
<path d="M2095 2595 c-33 -32 -33 -84 -2 -121 21 -24 33 -28 113 -35 49 -4
112 -8 139 -8 l50 0 -98 94 c-90 88 -100 95 -138 95 -29 0 -47 -7 -64 -25z"/>
<path d="M2943 2511 c-130 -79 -158 -100 -142 -105 8 -3 67 -12 132 -20 105
-14 121 -14 147 -1 35 18 50 43 50 83 0 31 -39 82 -64 82 -8 0 -21 2 -28 5 -8
3 -50 -17 -95 -44z"/>
<path d="M2328 2165 c-58 -30 -114 -65 -122 -77 -24 -34 -20 -85 9 -113 32
-33 95 -35 124 -4 17 19 111 223 111 242 0 12 -12 8 -122 -48z"/>
<path d="M2695 2158 c3 -18 12 -74 20 -125 15 -101 25 -127 55 -143 73 -39
160 35 131 112 -8 22 -189 188 -205 188 -4 0 -4 -15 -1 -32z"/>
<path d="M2972 2134 c112 -117 85 -293 -57 -366 -80 -42 -196 -21 -260 46
l-32 34 -35 -132 c-36 -133 -36 -133 -22 -212 83 -481 456 -760 1102 -824 99
-10 115 -9 147 6 55 26 69 62 61 161 -39 507 -301 932 -751 1219 -44 28 -105
64 -135 79 l-55 27 37 -38z"/>
<path d="M1940 2130 c-36 -4 -99 -8 -140 -9 -70 -1 -79 -4 -137 -41 -185 -121
-309 -298 -370 -525 -25 -93 -27 -114 -27 -310 0 -175 3 -229 21 -325 35 -178
48 -215 87 -239 57 -35 98 -26 280 65 402 202 684 555 805 1009 29 110 50 226
40 219 -5 -3 -9 -10 -9 -15 0 -23 -57 -92 -95 -115 -114 -66 -258 -26 -317 89
-23 45 -29 119 -15 175 8 31 8 32 -25 30 -18 0 -62 -4 -98 -8z"/>
</g>
</svg>
